<svg width="30" height="30" viewBox="0 0 30 30" fill="none" xmlns="http://www.w3.org/2000/svg">
<mask id="mask0_0_378" style="mask-type:alpha" maskUnits="userSpaceOnUse" x="0" y="0" width="30" height="30">
<rect width="30" height="30" fill="white"/>
</mask>
<g mask="url(#mask0_0_378)">
<path fill-rule="evenodd" clip-rule="evenodd" d="M20.625 7.5V22.5C20.625 25.3125 17.8125 28.125 15 28.125C12.1875 28.125 9.375 25.3125 9.375 22.5V7.5V5.625C9.375 3.75 11.25 1.875 13.125 1.875C15 1.875 16.875 3.75 16.875 5.625V7.5V18.75V20.625C16.875 21.5625 15.9375 22.5 15 22.5C14.0625 22.5 13.125 21.5625 13.125 20.625V7.5H11.25V20.625C11.25 22.5 13.125 24.375 15 24.375C16.875 24.375 18.75 22.5 18.75 20.625V18.75V5.625C18.75 2.8125 15.9375 0 13.125 0C10.3125 0 7.5 2.8125 7.5 5.625V7.5V22.5C7.5 26.25 11.25 30 15 30C18.75 30 22.5 26.25 22.5 22.5V7.5H20.625Z" fill="#ED7635"/>
</g>
</svg>
