<?xml version="1.0" encoding="utf-8"?>
<svg width="112px" height="26px" viewBox="0 0 112 26" version="1.1" xmlns:xlink="http://www.w3.org/1999/xlink" xmlns="http://www.w3.org/2000/svg">
  <g id="Group">
    <path d="M0 1L112 1L112 26L0 26L0 1Z" id="Rectangle" fill="#171717" fill-rule="evenodd" stroke="none" />
    <g id="Launch+" transform="translate(6 0)">
      <g id="LAU" fill="#FFFFFF">
        <path d="M1.958 20.81L1.958 5.19L3.498 5.19L3.498 19.446L12.518 19.446L12.518 20.81L1.958 20.81ZM19.624 5.19L20.922 5.19L27.412 20.81L25.784 20.81L23.76 15.926L16.742 15.926L14.74 20.81L13.09 20.81L19.624 5.19ZM32.89 20.26Q34.166 20.92 36.014 20.92Q37.818 20.92 39.072 20.282Q40.326 19.644 41.107 18.566Q41.888 17.488 42.24 16.058Q42.592 14.628 42.592 13.066L42.592 5.19L41.052 5.19L41.052 13.066Q41.052 14.254 40.81 15.409Q40.568 16.564 40.007 17.488Q39.446 18.412 38.467 18.973Q37.488 19.534 35.992 19.534Q34.54 19.534 33.572 18.995Q32.604 18.456 32.032 17.532Q31.46 16.608 31.207 15.442Q30.954 14.276 30.954 13.066L30.954 5.19L29.436 5.19L29.436 13.066Q29.436 14.562 29.777 15.97Q30.118 17.378 30.866 18.489Q31.614 19.6 32.89 20.26ZM23.408 14.716L20.262 6.994L17.072 14.716L23.408 14.716Z" />
      </g>
      <g id="N" fill="#FFFFFF">
        <path d="M48.158 5.19L49.346 5.19L56.298 18.192L59.048 5.212L60.566 5.212L57.244 20.81L55.946 20.81L49.06 8.05L46.354 20.81L44.836 20.81L48.158 5.19Z" />
      </g>
      <g id="CH+" fill="#FFFFFF">
        <path d="M61.512 12.89Q61.512 11.46 62.007 10.085Q62.502 8.71 63.448 7.577Q64.394 6.444 65.78 5.773Q67.166 5.102 68.926 5.102Q71.016 5.102 72.501 6.059Q73.986 7.016 74.69 8.512L73.48 9.26Q72.974 8.226 72.204 7.621Q71.434 7.016 70.565 6.752Q69.696 6.488 68.838 6.488Q67.43 6.488 66.352 7.049Q65.274 7.61 64.537 8.545Q63.8 9.48 63.426 10.635Q63.052 11.79 63.052 12.978Q63.052 14.276 63.492 15.464Q63.932 16.652 64.724 17.565Q65.516 18.478 66.583 19.017Q67.65 19.556 68.904 19.556Q69.784 19.556 70.708 19.248Q71.632 18.94 72.435 18.302Q73.238 17.664 73.722 16.652L74.998 17.312Q74.514 18.478 73.502 19.292Q72.49 20.106 71.247 20.524Q70.004 20.942 68.816 20.942Q67.21 20.942 65.868 20.249Q64.526 19.556 63.547 18.401Q62.568 17.246 62.04 15.805Q61.512 14.364 61.512 12.89ZM89.958 5.19L89.958 20.81L88.44 20.81L88.44 13.506L79.178 13.506L79.178 20.81L77.638 20.81L77.638 5.19L79.178 5.19L79.178 12.142L88.44 12.142L88.44 5.19L89.958 5.19ZM99.902 13.616L99.902 12.384L97.174 12.384L97.174 9.414L95.788 9.414L95.788 12.384L93.06 12.384L93.06 13.616L95.788 13.616L95.788 16.586L97.174 16.586L97.174 13.616L99.902 13.616Z" />
      </g>
    </g>
  </g>
</svg>