<svg width="113" height="26" viewBox="0 0 113 26" fill="none" xmlns="http://www.w3.org/2000/svg">
<g id="white-logo">
<rect id="Rectangle" x="0.488647" y="0.892048" width="112" height="25" fill="white"/>
<path id="Launch+" d="M7.94665 21.392V5.77205H9.48665V20.028H18.5066V21.392H7.94665ZM25.6128 5.77205H26.9108L33.4008 21.392H31.7728L29.7488 16.508H22.7308L20.7288 21.392H19.0788L25.6128 5.77205ZM29.3968 15.298L26.2508 7.57605L23.0608 15.298H29.3968ZM41.2885 20.116C42.2712 20.116 43.0852 19.9327 43.7305 19.566C44.3905 19.1847 44.9112 18.6934 45.2925 18.092C45.6885 17.476 45.9598 16.7794 46.1065 16.002C46.2678 15.2247 46.3485 14.44 46.3485 13.648V5.77205H47.8885V13.648C47.8885 14.704 47.7712 15.7087 47.5365 16.662C47.3018 17.6007 46.9205 18.4294 46.3925 19.148C45.8792 19.8667 45.2045 20.4387 44.3685 20.864C43.5325 21.2894 42.5132 21.502 41.3105 21.502C40.0785 21.502 39.0372 21.282 38.1865 20.842C37.3505 20.3874 36.6758 19.7934 36.1625 19.06C35.6492 18.3267 35.2825 17.4907 35.0625 16.552C34.8425 15.6134 34.7325 14.6454 34.7325 13.648V5.77205H36.2505V13.648C36.2505 14.4694 36.3312 15.2687 36.4925 16.046C36.6538 16.8234 36.9252 17.5127 37.3065 18.114C37.7025 18.7154 38.2232 19.1994 38.8685 19.566C39.5138 19.9327 40.3205 20.116 41.2885 20.116ZM53.4519 5.77205H54.6399L61.5919 18.774L64.3419 5.79405H65.8599L62.5379 21.392H61.2399L54.3539 8.63205L51.6479 21.392H50.1299L53.4519 5.77205ZM66.8111 13.472C66.8111 12.5334 66.9724 11.602 67.2951 10.678C67.6324 9.73938 68.1164 8.90338 68.7471 8.17005C69.3778 7.43671 70.1551 6.84271 71.0791 6.38805C72.0031 5.91871 73.0518 5.68405 74.2251 5.68405C75.6184 5.68405 76.8064 5.99938 77.7891 6.63005C78.7864 7.26071 79.5198 8.08205 79.9891 9.09405L78.7791 9.84205C78.5298 9.32871 78.2218 8.89605 77.8551 8.54405C77.5031 8.19205 77.1218 7.90605 76.7111 7.68605C76.3004 7.46605 75.8751 7.31205 75.4351 7.22405C74.9951 7.12138 74.5624 7.07005 74.1371 7.07005C73.1984 7.07005 72.3698 7.26071 71.6511 7.64205C70.9324 8.02338 70.3238 8.52205 69.8251 9.13805C69.3411 9.75405 68.9744 10.4507 68.7251 11.228C68.4758 11.9907 68.3511 12.768 68.3511 13.56C68.3511 14.4254 68.4978 15.254 68.7911 16.046C69.0991 16.838 69.5098 17.542 70.0231 18.158C70.5511 18.7594 71.1671 19.2434 71.8711 19.61C72.5898 19.962 73.3671 20.138 74.2031 20.138C74.6431 20.138 75.0904 20.0867 75.5451 19.984C76.0144 19.8667 76.4618 19.6907 76.8871 19.456C77.3271 19.2067 77.7304 18.906 78.0971 18.554C78.4638 18.1874 78.7718 17.7474 79.0211 17.234L80.2971 17.894C80.0478 18.4807 79.6958 19.0014 79.2411 19.456C78.7864 19.896 78.2804 20.27 77.7231 20.578C77.1658 20.886 76.5718 21.1207 75.9411 21.282C75.3251 21.4434 74.7164 21.524 74.1151 21.524C73.0444 21.524 72.0618 21.2894 71.1671 20.82C70.2724 20.3507 69.5024 19.742 68.8571 18.994C68.2118 18.2314 67.7058 17.3734 67.3391 16.42C66.9871 15.452 66.8111 14.4694 66.8111 13.472ZM95.2471 5.77205V21.392H93.7291V14.088H84.4671V21.392H82.9271V5.77205H84.4671V12.724H93.7291V5.77205H95.2471ZM105.197 12.966V14.198H102.469V17.168H101.083V14.198H98.3553V12.966H101.083V9.99605H102.469V12.966H105.197Z" fill="black"/>
</g>
</svg>
